<svg width="21" height="21" viewBox="0 0 21 21" fill="none" xmlns="http://www.w3.org/2000/svg">
<path fill-rule="evenodd" clip-rule="evenodd" d="M7.0119 10.7259C7.96343 10.1765 8.28945 8.95978 7.74008 8.00825C7.19072 7.05672 5.974 6.7307 5.02247 7.28007C4.07094 7.82943 3.74493 9.04615 4.29429 9.99768C4.84366 10.9492 6.06037 11.2752 7.0119 10.7259ZM2.83642 10.8394C3.85065 12.5961 6.09691 13.198 7.8536 12.1837C9.61029 11.1695 10.2122 8.92324 9.19795 7.16655C8.18373 5.40986 5.93746 4.80798 4.18077 5.8222C2.42408 6.83642 1.8222 9.08269 2.83642 10.8394Z" fill="#121212"/>
<path fill-rule="evenodd" clip-rule="evenodd" d="M15.115 5.19447C15.6634 4.87786 15.8513 4.17662 15.5347 3.62823C15.218 3.07983 14.5168 2.89194 13.9684 3.20855C13.42 3.52517 13.2321 4.2264 13.5487 4.7748C13.8654 5.3232 14.5666 5.51109 15.115 5.19447ZM12.195 5.55638C12.9433 6.85242 14.6005 7.29648 15.8966 6.54821C17.1926 5.79994 17.6367 4.14269 16.8884 2.84665C16.1401 1.5506 14.4829 1.10654 13.1868 1.85482C11.8908 2.60309 11.4467 4.26033 12.195 5.55638Z" fill="#121212"/>
<path fill-rule="evenodd" clip-rule="evenodd" d="M7.72248 5.74837C8.55253 6.31849 9.66936 6.40117 10.5979 5.8651C11.5155 5.33531 12.0017 4.34403 11.937 3.35185L13.9583 6.85279C13.1216 6.23698 11.9666 6.13335 11.0111 6.68502C10.1182 7.20053 9.6338 8.15296 9.66795 9.11802L7.72248 5.74837Z" fill="#121212"/>
<path fill-rule="evenodd" clip-rule="evenodd" d="M13.7111 10.7741C12.7595 11.3235 12.4335 12.5402 12.9829 13.4917C13.5323 14.4433 14.749 14.7693 15.7005 14.2199C16.652 13.6706 16.978 12.4539 16.4287 11.5023C15.8793 10.5508 14.6626 10.2248 13.7111 10.7741ZM17.8866 10.6606C16.8723 8.90394 14.6261 8.30205 12.8694 9.31627C11.1127 10.3305 10.5108 12.5768 11.525 14.3335C12.5392 16.0901 14.7855 16.692 16.5422 15.6778C18.2989 14.6636 18.9008 12.4173 17.8866 10.6606Z" fill="#121212"/>
<path fill-rule="evenodd" clip-rule="evenodd" d="M5.60805 16.3055C5.05965 16.6221 4.87175 17.3234 5.18837 17.8718C5.50499 18.4202 6.20622 18.6081 6.75462 18.2914C7.30302 17.9748 7.49091 17.2736 7.17429 16.7252C6.85768 16.1768 6.15644 15.9889 5.60805 16.3055ZM8.52803 15.9436C7.77976 14.6476 6.12251 14.2035 4.82647 14.9518C3.53042 15.7001 3.08636 17.3573 3.83464 18.6534C4.58291 19.9494 6.24015 20.3935 7.5362 19.6452C8.83224 18.8969 9.2763 17.2397 8.52803 15.9436Z" fill="#121212"/>
<path fill-rule="evenodd" clip-rule="evenodd" d="M13.0005 15.7516C12.1705 15.1815 11.0536 15.0988 10.1251 15.6349C9.20749 16.1647 8.72127 17.156 8.78598 18.1482L6.76472 14.6472C7.60133 15.263 8.75633 15.3667 9.71186 14.815C10.6047 14.2995 11.0892 13.347 11.055 12.382L13.0005 15.7516Z" fill="#121212"/>
</svg>
